<svg class="volumeSvg" x="0px" y="0px" viewBox="0 0 800 800"><path d="M359.2,397.1c0,71.7,0,143.3,0,215c0,9.1-1.2,17.7-7.7,24.8c-13.8,14.9-34.2,15.1-49.1,0.3c-32.2-32.1-64.3-64.3-96.4-96.4	c-4.8-4.8-9.8-9.6-14.5-14.6c-2.6-2.8-5.3-3.9-9.1-3.9c-42.4,0.1-84.8,0.1-127.1,0.1c-15.4,0-27.1-8.9-31.2-23.6	c-1.1-4.1-1.4-8.3-1.4-12.5c0-60,0-120,0-180c0-14.4,4.6-26.3,18.5-32.9c5.1-2.4,10.6-3.1,16.1-3.1c41.5,0,83,0,124.5,0.1	c4.2,0,7.1-1.2,9.9-4.1c36.8-36.9,73.6-73.8,110.6-110.6c10.5-10.5,23.1-14.1,37.2-8.3c11.2,4.6,17.9,13.1,19.1,25.5	c0.5,5.1,0.6,10.2,0.6,15.3C359.2,257.5,359.2,327.3,359.2,397.1z"></path><path d="M777.4,394.2c-0.2,41.1-5.6,79-17.7,115.8c-14.5,44.1-36,84.5-65.7,120.4c-9.1,11-18.2,22-28.8,31.6	c-18.1,16.5-36.4,32.7-57.7,44.9c-19.1,10.9-43.9-1.6-46.9-23.4c-2-14.2,3.3-25.2,14.9-32.9c20.8-13.9,39.6-30.1,56.6-48.4	c14.9-16,27.8-33.6,38.9-52.5c18.2-31,30.2-64.2,36.7-99.4c3.8-20.4,5.4-41,4.8-61.7c-1.2-42.3-10.6-82.8-28.5-121.1	c-11.2-23.9-25.5-46-42.4-66.4c-19.8-23.8-43.3-43.3-68.4-61.2c-12.4-8.9-16.3-23.7-10.8-38.1c5.1-13.3,17.6-20.8,32.5-19.9	c6.1,0.4,11.3,2.4,16.3,5.6c21.2,13.8,40.9,29.5,58.5,47.5c34.5,35.1,61.6,75.3,80.2,121.1c13.4,33,22,67.1,25.4,102.5	C776.7,371.4,776.9,384.1,777.4,394.2z"></path><path d="M652.1,392.3c-0.7,56.6-15.7,104.9-47.2,147.9c-17.4,23.7-38.4,43.6-63.2,59.5c-14.3,9.1-29.1,8.5-41-2	c-11.9-10.5-13.8-29.9-4.5-42.9c3.9-5.5,9.5-8.9,14.8-12.6c35.3-24.8,59.1-57.9,70.4-99.4c10.8-39.8,8-78.9-8.4-116.9	c-9.9-22.8-24-42.5-41.9-59.5c-8.8-8.4-18.8-15.1-28.6-22.1c-11-7.9-15.3-24.6-9.9-37.3c6.2-14.7,19.2-22,34-20.1	c11.1,1.5,19.2,8.3,27.5,14.4c10.7,7.8,20.8,16.3,29.9,26.1c19.7,21.3,36.2,44.6,47.8,71.4c9.2,21.3,15.2,43.4,18.3,66.3	C651.3,375.2,651.6,385.5,652.1,392.3z"></path><path d="M526.4,394.8c-0.1,30.3-9.9,54.9-27.8,76.5c-9,10.8-19.7,19.4-32.1,25.8c-21.2,11-44.2-0.7-47.6-24.3	c-1.7-12.2,3.1-22.4,13.1-29.5c7.1-5.1,14.6-9.7,19.8-16.9c17.6-24.1,12-55.7-12.8-72.4c-3.4-2.3-7-4.3-9.9-7.1	c-12.5-11.6-14.1-29.7-4.1-43.1c10-13.3,28-16.9,42.6-8.2c31.6,18.7,51,46.1,57.3,82.4C526.1,384.3,526.7,390.6,526.4,394.8z"></path></svg>