<svg x="0px" y="0px" viewBox="0 0 800 800"><path d="M86.3,400.7C84.8,229.1,226.5,86.7,400.6,87c172.9,0.3,313.7,142.5,313.1,314.8c-0.6,170.5-138.2,313.3-314.4,313.1	C224.3,714.7,84.9,572.1,86.3,400.7z M378.8,400.8C378.8,400.8,378.7,400.8,378.8,400.8c-0.1-32.6-0.5-65.3,0.2-97.9	c0.3-13.7-10.3-23.4-22.7-22.8c-18.3,0.8-36.6,0.2-54.8,0.2c-13.9,0-22.1,8.1-22.1,21.9c0,65.7,0.2,131.4-0.2,197.1	c-0.1,12.6,9.2,22.6,22.4,22.2c18.4-0.6,36.9-0.5,55.3,0c12.1,0.3,22.2-7.4,22-21.9C378.6,466.7,378.8,433.8,378.8,400.8z	 M420.9,400.8C420.9,400.8,420.9,400.8,420.9,400.8c0.1,33.1,0,66.1,0.1,99.2c0,13.8,7.7,21.4,21.5,21.4c18.8,0,37.7-0.3,56.5,0.1	c12.3,0.3,21.6-9.6,21.5-21.4c-0.2-66.1-0.1-132.2-0.1-198.3c0-13.3-8.2-21.4-21.7-21.5c-18.6,0-37.2,0.5-55.7-0.2	c-12-0.5-22.5,9.2-22.3,22C421.2,335,420.9,367.9,420.9,400.8z"></path></svg>