<svg class="" x="0px" width="100px" height="100px" y="0px" viewBox="0 0 800 800">
    <path d="M713.9,400.5c1.4,171.2-137.8,314.4-313.9,314.3c-175.6,0-314.2-143-314-315c0.2-171.3,140.6-313.9,315-313.4	C574,87,715.4,228.9,713.9,400.5z M279.5,400.3c0,23.1,0,46.2,0,69.3c0,20.8-0.2,41.7,0.1,62.5c0.1,12.2,6,21.1,17,26.6	c11,5.5,21.2,3,31.2-2.9c23.3-13.6,46.8-27,70.2-40.5c49.8-28.6,99.6-57.1,149.3-85.8c18.1-10.4,18.7-38.7,1.1-49.4	c-74.5-45.4-149-90.8-223.5-136.1c-6-3.7-12.6-5.5-19.8-4.2c-15.7,2.9-25.5,14.4-25.5,30.5C279.4,313.6,279.5,357,279.5,400.3z"></path>
</svg>