<svg height="100px" width="100px" version="1.1" id="Layer_1" xmlns="http://www.w3.org/2000/svg" xmlns:xlink="http://www.w3.org/1999/xlink" viewBox="0 0 508.609 508.609" xml:space="preserve" fill="#000000" stroke="#000000"><g id="SVGRepo_bgCarrier" stroke-width="0"></g><g id="SVGRepo_tracerCarrier" stroke-linecap="round" stroke-linejoin="round"></g><g id="SVGRepo_iconCarrier"> <path style="fill:#787878;" d="M468.599,508.609H40.011v-76.63c0-35.603,28.821-54.591,62.05-69.849 c23.057-10.85,94.262-37.637,94.262-37.637h115.624c0,0,71.205,27.126,94.262,37.637c32.551,14.919,62.05,34.246,62.05,69.849v76.63 H468.599z"></path> <g> <circle style="fill:#efba9a;" cx="158.686" cy="192.932" r="40.35"></circle> <circle style="fill:#efba9a;" cx="349.923" cy="192.932" r="40.35"></circle> <path style="fill:#efba9a;" d="M200.731,295.672v56.625c0,29.499,24.074,53.574,53.574,53.574l0,0 c29.499,0,53.574-24.074,53.574-53.574v-56.625H200.731z"></path> </g> <path style="fill:#facdb6;" d="M308.217,85.107H200.392c-25.091,0-45.775,20.344-45.775,45.775v102.739 c0,54.93,44.419,99.687,99.687,99.687l0,0c54.93,0,99.687-44.419,99.687-99.687V130.882 C353.992,105.452,333.309,85.107,308.217,85.107z"></path> <path style="fill:#BDBDBE;" d="M313.303,106.808h-58.999h-58.999l-40.689,28.821l5.086,9.833 c8.477,16.275,28.821,22.04,44.758,12.546h49.844h49.844c15.597,9.494,36.281,3.73,44.758-12.546l5.086-9.833L313.303,106.808z"></path> <path style="fill:#c87b77;" d="M254.305,0c-54.93,0-99.687,44.419-99.687,99.687v35.942l40.689-28.821h58.999h58.999l40.689,28.821 V99.687C353.992,44.419,309.234,0,254.305,0z"></path> </g></svg>